<svg width="32" height="32" viewBox="0 0 32 32" fill="none" xmlns="http://www.w3.org/2000/svg">
<path fill-rule="evenodd" clip-rule="evenodd" d="M25.0026 26.4895C26.0513 26.3945 26.8881 25.3444 26.9733 24.0171L27.9929 8.09652C28.0895 6.58733 27.1867 5.27302 25.9932 5.18564L6.2527 4.0046C4.9579 3.90985 3.89744 5.29076 4.00792 6.92755L5.41302 25.5327C5.51246 27.0023 6.52534 28.0983 7.68702 27.993L25.0026 26.4895Z" stroke="#2B2845" stroke-width="1.5"/>
<path fill-rule="evenodd" clip-rule="evenodd" d="M20.5719 11.2624C20.4197 10.9004 20.1825 10.5854 19.8608 10.3167C19.5392 10.048 19.1325 9.8369 18.6417 9.68336C18.549 9.65424 18.4523 9.62876 18.3529 9.6056C18.3858 9.20289 18.3632 8.71184 18.229 8.38325C18.0672 7.98684 17.6638 7.75521 17.0188 7.69035L16.1466 7.602C15.9771 7.58479 15.8751 7.68439 15.8405 7.90047C15.8103 8.0871 15.6701 8.7221 15.598 9.098C17.3242 9.06259 18.0339 9.54504 18.0339 9.54504C16.9906 9.36537 15.9834 9.50335 15.6737 9.55464C15.3773 9.60692 15.0995 9.67774 14.843 9.77105C14.8111 9.78263 14.7789 9.79421 14.7477 9.80646C14.1436 10.0424 13.6325 10.3524 13.2152 10.736C12.7975 11.1201 12.4559 11.5559 12.1907 12.044C11.9256 12.5321 11.7192 13.0284 11.5727 13.5327C11.4261 14.0373 11.3271 14.5281 11.2766 15.0052C11.2258 15.4821 11.2002 15.9016 11.2002 16.2636C11.2002 17.2729 11.3414 18.1117 11.6235 18.7808C11.9056 19.4495 12.2725 19.9816 12.724 20.3761C13.045 20.657 13.3979 20.8784 13.782 21.0428C13.791 21.0465 13.7996 21.0508 13.8086 21.0544C13.9562 21.1163 14.108 21.1706 14.2648 21.2152C14.4506 21.2685 14.6363 21.3119 14.8218 21.3476C15.0882 21.3896 15.3939 21.4204 15.7438 21.431C15.7438 21.431 14.8168 21.7013 13.578 21.4263C13.5641 21.786 13.5966 22.1275 13.7113 22.4075C13.8747 22.8055 14.2851 23.0388 14.9414 23.1063L15.8296 23.198C16.0017 23.2162 16.106 23.1166 16.1419 22.9002C16.1808 22.6689 16.3858 21.6299 16.423 21.4485C16.5267 21.4422 16.6284 21.434 16.7277 21.4234C17.9901 21.2851 19.4242 20.482 19.9349 19.3026C20.0662 18.9992 20.0778 18.6835 19.9692 18.3549C19.8871 18.1058 19.7611 17.9201 19.5923 17.7977C19.4232 17.6753 19.2481 17.5925 19.0667 17.5489C18.8849 17.5058 18.7168 17.4926 18.5616 17.5095C18.4064 17.527 18.2998 17.5442 18.2416 17.5624C18.1134 17.6025 18.0273 17.6825 17.9831 17.8023C17.9392 17.9221 17.8844 18.0581 17.8186 18.2097C17.7532 18.3612 17.6515 18.5121 17.5142 18.6607C17.377 18.8099 17.1567 18.9314 16.8537 19.026C16.6709 19.0829 16.4995 19.1153 16.3386 19.1249C16.2323 19.1312 16.1303 19.1273 16.0336 19.113C15.7914 19.0763 15.5867 18.987 15.4119 18.8605C15.0009 18.5627 14.7583 18.0601 14.5965 17.5634C14.52 17.3288 14.4672 17.0889 14.432 16.8464C14.3609 16.3553 14.3625 15.8527 14.3918 15.3586C14.4087 15.0737 14.4483 14.7776 14.5104 14.4705C14.5722 14.1634 14.6569 13.8616 14.7643 13.5655C14.859 13.3041 14.9803 13.0662 15.1281 12.8514C15.1474 12.8233 15.1673 12.7951 15.1876 12.7677C15.3624 12.5321 15.577 12.3402 15.8309 12.1919C16.0851 12.044 16.3925 11.9699 16.7536 11.9699C17.0019 11.9699 17.1966 12.0109 17.3378 12.0933C17.4026 12.131 17.4594 12.1797 17.5089 12.2386C17.5671 12.3074 17.6146 12.3905 17.6511 12.4881C17.7189 12.6691 17.7585 12.8967 17.7698 13.171C17.7807 13.445 17.7924 13.7687 17.8037 14.1412C17.8037 14.2624 17.8346 14.3418 17.8967 14.3802C17.9585 14.4185 18.114 14.4374 18.3622 14.4374C19.1411 14.4374 19.7422 14.2759 20.1655 13.9523C20.5889 13.629 20.8002 13.1161 20.8002 12.4139C20.8002 12.0083 20.7241 11.6244 20.5719 11.2624Z" fill="#2B2845"/>
</svg>
